<?xml version="1.0" encoding="iso-8859-1"?>
<!-- Uploaded to: SVG Repo, www.svgrepo.com, Generator: SVG Repo Mixer Tools -->
<svg fill="#000000" height="800px" width="800px" version="1.1" id="Layer_1" xmlns="http://www.w3.org/2000/svg" xmlns:xlink="http://www.w3.org/1999/xlink" 
	 viewBox="0 0 512 512" xml:space="preserve">
<g>
	<g>
		<path d="M431.279,0H80.721c-5.632,0-10.199,4.566-10.199,10.199v491.602c0,5.633,4.567,10.199,10.199,10.199h266.562
			c2.705,0,5.298-1.075,7.212-2.987l83.997-83.998c1.912-1.912,2.987-4.506,2.987-7.212V10.199C441.479,4.566,436.912,0,431.279,0z
			 M357.463,477.196l-0.044-49.257l49.257,0.045L357.463,477.196z M421.081,407.599l-73.862-0.067c-0.003,0-0.006,0-0.009,0
			c-2.705,0-5.299,1.075-7.212,2.987c-1.914,1.915-2.989,4.513-2.987,7.221l0.066,73.862H90.92V20.398h330.161V407.599z"/>
	</g>
</g>
<g>
	<g>
		<path d="M175.023,367.976c-25.647,0-46.513,20.865-46.513,46.513c0,25.649,20.867,46.514,46.513,46.514
			c25.648,0,46.514-20.865,46.514-46.514C221.539,388.842,200.672,367.976,175.023,367.976z M175.023,440.606
			c-14.4,0-26.115-11.716-26.115-26.116c0-14.4,11.715-26.115,26.115-26.115s26.116,11.715,26.116,26.115
			S189.425,440.606,175.023,440.606z"/>
	</g>
</g>
<g>
	<g>
		<path d="M308.016,405.928H251.92c-5.632,0-10.199,4.566-10.199,10.199s4.567,10.199,10.199,10.199h56.096
			c5.632,0,10.199-4.566,10.199-10.199S313.648,405.928,308.016,405.928z"/>
	</g>
</g>
<g>
	<g>
		<path d="M171.347,61.195h-29.578c-5.632,0-10.199,4.566-10.199,10.199c0,5.633,4.567,10.199,10.199,10.199h29.578
			c5.632,0,10.199-4.566,10.199-10.199C181.546,65.761,176.979,61.195,171.347,61.195z"/>
	</g>
</g>
<g>
	<g>
		<path d="M374.311,61.195h-88.733c-5.632,0-10.199,4.566-10.199,10.199c0,5.633,4.567,10.199,10.199,10.199h88.733
			c5.632,0,10.199-4.566,10.199-10.199C384.51,65.761,379.943,61.195,374.311,61.195z"/>
	</g>
</g>
<g>
	<g>
		<path d="M374.311,105.052H223.363c-5.632,0-10.199,4.566-10.199,10.199c0,5.633,4.567,10.199,10.199,10.199h150.948
			c5.632,0,10.199-4.566,10.199-10.199C384.51,109.618,379.943,105.052,374.311,105.052z"/>
	</g>
</g>
<g>
	<g>
		<path d="M374.821,185.625H137.179c-5.632,0-10.199,4.566-10.199,10.199s4.567,10.199,10.199,10.199h237.641
			c5.632,0,10.199-4.566,10.199-10.199S380.453,185.625,374.821,185.625z"/>
	</g>
</g>
<g>
	<g>
		<path d="M374.821,220.303H137.179c-5.632,0-10.199,4.566-10.199,10.199c0,5.633,4.567,10.199,10.199,10.199h237.641
			c5.632,0,10.199-4.566,10.199-10.199C385.02,224.869,380.453,220.303,374.821,220.303z"/>
	</g>
</g>
<g>
	<g>
		<path d="M374.821,258.04H137.179c-5.632,0-10.199,4.566-10.199,10.199c0,5.633,4.567,10.199,10.199,10.199h237.641
			c5.632,0,10.199-4.566,10.199-10.199C385.02,262.606,380.453,258.04,374.821,258.04z"/>
	</g>
</g>
<g>
	<g>
		<path d="M374.821,292.717h-5.61c-5.632,0-10.199,4.566-10.199,10.199c0,5.633,4.567,10.199,10.199,10.199h5.61
			c5.632,0,10.199-4.566,10.199-10.199C385.02,297.283,380.453,292.717,374.821,292.717z"/>
	</g>
</g>
<g>
	<g>
		<path d="M333.514,292.717H137.179c-5.632,0-10.199,4.566-10.199,10.199c0,5.633,4.567,10.199,10.199,10.199h196.335
			c5.632,0,10.199-4.566,10.199-10.199C343.713,297.283,339.146,292.717,333.514,292.717z"/>
	</g>
</g>
</svg>