<?xml version="1.0" encoding="iso-8859-1"?>
<!-- Uploaded to: SVG Repo, www.svgrepo.com, Generator: SVG Repo Mixer Tools -->
<svg fill="#000000" height="800px" width="800px" version="1.1" id="Layer_1" xmlns="http://www.w3.org/2000/svg" xmlns:xlink="http://www.w3.org/1999/xlink" 
	 viewBox="0 0 512 512" xml:space="preserve">
<g>
	<g>
		<path d="M256,0C114.843,0,0,114.843,0,256s114.843,256,256,256s256-114.843,256-256S397.157,0,256,0z M256,478.609
			c-122.75,0-222.609-99.865-222.609-222.609S133.25,33.391,256,33.391S478.609,133.256,478.609,256S378.75,478.609,256,478.609z"/>
	</g>
</g>
<g>
	<g>
		<path d="M256,66.783C151.663,66.783,66.783,151.663,66.783,256S151.663,445.217,256,445.217S445.217,360.337,445.217,256
			S360.337,66.783,256,66.783z M239.304,150.261c0-9.223,7.473-16.696,16.696-16.696c9.223,0,16.696,7.473,16.696,16.696V256
			c0,9.223-7.473,16.696-16.696,16.696c-9.223,0-16.696-7.473-16.696-16.696V150.261z M256,378.386
			c-67.484,0-122.386-54.902-122.386-122.386c0-32.739,12.718-63.484,35.815-86.576c6.521-6.511,17.092-6.516,23.614,0.006
			c6.516,6.521,6.516,17.092-0.006,23.614c-16.788,16.782-26.033,39.141-26.033,62.957c0,49.071,39.924,88.995,88.995,88.995
			s88.995-39.924,88.995-88.995c0-23.82-9.245-46.179-26.027-62.957c-6.521-6.521-6.521-17.092-0.006-23.614
			c6.521-6.521,17.092-6.516,23.614-0.006c23.092,23.087,35.81,53.837,35.81,86.576C378.386,323.484,323.484,378.386,256,378.386z"
			/>
	</g>
</g>
</svg>