<svg xmlns="http://www.w3.org/2000/svg" xmlns:xlink="http://www.w3.org/1999/xlink" width="500" zoomAndPan="magnify" viewBox="0 0 375 374.999991" height="500" preserveAspectRatio="xMidYMid meet" version="1.0"><defs><clipPath id="f6aad03006"><path d="M 56.875 7.863281 L 317.875 7.863281 L 317.875 367.113281 L 56.875 367.113281 Z M 56.875 7.863281 " clip-rule="nonzero"/></clipPath><clipPath id="502c77f3ad"><path d="M 180.984375 267.839844 L 180.984375 226.328125 C 180.042969 226.222656 179.101562 226.011719 178.261719 225.804688 C 176.585938 225.488281 175.015625 225.070312 173.550781 224.546875 C 171.976562 224.125 170.40625 223.496094 168.941406 222.761719 C 168 222.34375 167.054688 221.925781 166.21875 221.402344 C 164.648438 223.078125 162.972656 224.648438 161.296875 226.011719 C 158.992188 227.796875 156.582031 229.367188 154.070312 230.730469 C 150.925781 232.40625 147.574219 233.664062 144.015625 234.609375 C 140.664062 235.449219 137.101562 235.867188 133.4375 235.867188 C 127.363281 235.867188 121.601562 234.609375 116.363281 232.511719 C 110.917969 230.207031 105.996094 226.851562 101.910156 222.761719 C 97.828125 218.675781 94.476562 213.75 92.277344 208.296875 C 90.078125 203.054688 88.820312 197.289062 88.820312 191.210938 L 88.925781 189.429688 C 87.773438 187.75 86.621094 186.074219 85.675781 184.394531 C 84.628906 182.402344 83.792969 180.414062 82.953125 178.210938 C 82.117188 175.800781 81.382812 173.285156 80.964844 170.769531 C 80.546875 168.253906 80.335938 165.734375 80.335938 163.117188 C 80.335938 158.710938 80.964844 154.414062 82.222656 150.328125 C 83.375 146.132812 85.257812 142.253906 87.5625 138.691406 C 89.554688 135.753906 91.855469 132.925781 94.476562 130.515625 C 96.570312 128.523438 98.875 126.84375 101.28125 125.273438 L 100.863281 123.910156 C 100.445312 122.859375 100.132812 121.707031 99.816406 120.660156 C 99.398438 118.773438 98.980469 116.886719 98.769531 115 C 98.558594 113.113281 98.351562 111.226562 98.351562 109.339844 C 98.351562 103.363281 99.605469 97.597656 101.804688 92.25 C 104.007812 86.800781 107.359375 81.871094 111.441406 77.785156 C 115.527344 73.695312 120.449219 70.339844 125.894531 68.140625 C 131.132812 65.9375 136.890625 64.785156 142.96875 64.785156 C 143.59375 64.785156 144.328125 64.785156 145.167969 64.785156 L 146.320312 64.890625 C 147.785156 61.535156 149.566406 58.390625 151.660156 55.5625 C 154.171875 52.207031 157.105469 49.167969 160.457031 46.648438 C 164.332031 43.820312 168.625 41.511719 173.234375 39.941406 C 177.632812 38.367188 182.453125 37.636719 187.375 37.636719 C 192.296875 37.636719 197.113281 38.367188 201.511719 39.941406 C 206.226562 41.511719 210.414062 43.820312 214.289062 46.648438 C 217.640625 49.167969 220.574219 52.207031 223.089844 55.5625 C 225.183594 58.390625 227.070312 61.535156 228.429688 64.890625 L 229.582031 64.785156 C 230.417969 64.785156 231.152344 64.785156 231.78125 64.785156 C 237.855469 64.785156 243.617188 65.9375 248.851562 68.140625 C 254.300781 70.339844 259.222656 73.695312 263.304688 77.785156 C 267.390625 81.871094 270.742188 86.800781 273.046875 92.25 C 275.140625 97.597656 276.398438 103.363281 276.398438 109.339844 C 276.398438 111.226562 276.292969 113.113281 275.980469 115 C 275.769531 116.886719 275.351562 118.773438 274.933594 120.660156 C 274.617188 121.8125 274.304688 122.859375 273.988281 123.910156 L 273.464844 125.273438 C 275.875 126.84375 278.179688 128.625 280.378906 130.515625 C 282.890625 132.925781 285.195312 135.753906 287.1875 138.691406 C 289.488281 142.253906 291.375 146.132812 292.632812 150.328125 C 293.785156 154.414062 294.515625 158.710938 294.515625 163.117188 C 294.515625 165.734375 294.203125 168.253906 293.785156 170.769531 C 293.363281 173.285156 292.738281 175.800781 291.792969 178.210938 C 291.0625 180.414062 290.117188 182.402344 289.070312 184.394531 C 288.128906 186.074219 287.082031 187.75 285.824219 189.429688 L 285.929688 191.210938 C 285.929688 197.289062 284.777344 203.054688 282.578125 208.296875 C 280.273438 213.75 277.027344 218.675781 272.835938 222.761719 C 264.773438 230.835938 253.671875 235.867188 241.417969 235.867188 C 237.75 235.867188 234.191406 235.449219 230.734375 234.609375 C 227.277344 233.664062 223.925781 232.40625 220.679688 230.730469 C 218.167969 229.367188 215.757812 227.796875 213.558594 226.011719 C 211.777344 224.648438 210.101562 223.078125 208.636719 221.402344 C 207.691406 221.925781 206.75 222.34375 205.808594 222.761719 C 204.339844 223.496094 202.769531 224.125 201.304688 224.546875 C 199.734375 225.070312 198.160156 225.488281 196.589844 225.804688 C 195.648438 226.011719 194.707031 226.222656 193.761719 226.328125 L 193.761719 267.734375 C 201.933594 263.121094 210.519531 259.453125 219.738281 256.9375 C 229.792969 254.105469 240.472656 252.535156 251.367188 252.535156 C 256.394531 252.535156 261.421875 252.847656 266.34375 253.476562 C 271.371094 254.210938 276.292969 255.15625 281.214844 256.414062 C 285.195312 257.460938 289.175781 258.71875 292.945312 260.1875 C 295.984375 261.339844 298.914062 262.703125 301.847656 264.066406 C 302.792969 259.976562 303.523438 255.890625 304.152344 251.695312 C 304.78125 246.769531 305.09375 241.632812 305.09375 236.390625 L 305.09375 138.480469 C 305.09375 122.652344 301.953125 107.453125 296.191406 93.613281 C 290.222656 79.148438 281.425781 66.148438 270.53125 55.246094 C 259.640625 44.449219 246.652344 35.644531 232.304688 29.667969 C 218.480469 23.902344 203.292969 20.652344 187.375 20.652344 C 171.558594 20.652344 156.371094 23.902344 142.546875 29.667969 C 128.09375 35.644531 115.109375 44.449219 104.214844 55.246094 C 93.429688 66.148438 84.628906 79.148438 78.660156 93.613281 C 72.898438 107.453125 69.652344 122.652344 69.652344 138.480469 L 69.652344 236.390625 C 69.652344 241.632812 70.070312 246.769531 70.699219 251.695312 C 71.222656 255.890625 71.957031 259.976562 73.003906 264.066406 C 76.148438 262.597656 79.289062 261.132812 82.640625 259.976562 C 86.726562 258.40625 90.914062 257.042969 95.207031 255.996094 C 99.816406 254.839844 104.53125 254.003906 109.242188 253.375 C 113.957031 252.847656 118.667969 252.535156 123.382812 252.535156 C 129.351562 252.535156 135.425781 253.058594 141.394531 253.898438 C 147.367188 254.839844 153.230469 256.308594 158.992188 258.089844 C 163.390625 259.558594 167.789062 261.234375 171.976562 263.226562 C 175.121094 264.589844 178.054688 266.164062 180.984375 267.839844 Z M 106.207031 321.511719 C 106.9375 321.199219 107.671875 320.988281 108.40625 320.777344 C 109.660156 320.359375 110.8125 320.046875 112.070312 319.730469 C 113.957031 319.3125 115.839844 318.996094 117.726562 318.785156 C 119.613281 318.578125 121.496094 318.472656 123.382812 318.472656 C 125.582031 318.472656 127.886719 318.578125 130.191406 318.890625 C 132.390625 319.207031 134.589844 319.625 136.789062 320.253906 C 138.464844 320.777344 140.140625 321.304688 141.816406 321.933594 C 142.652344 322.246094 143.492188 322.664062 144.433594 322.980469 C 145.691406 319.941406 147.261719 316.796875 148.832031 313.859375 C 150.402344 310.925781 152.078125 307.988281 153.964844 305.265625 C 152.496094 304.53125 151.03125 303.902344 149.460938 303.273438 C 147.261719 302.433594 144.957031 301.59375 142.546875 300.964844 C 139.40625 300.023438 136.265625 299.394531 133.121094 298.972656 C 129.980469 298.554688 126.734375 298.34375 123.382812 298.34375 C 120.136719 298.34375 116.886719 298.554688 113.640625 298.972656 C 110.394531 299.394531 107.253906 300.128906 104.109375 300.964844 C 101.703125 301.699219 99.292969 302.539062 96.882812 303.480469 C 95.3125 304.109375 93.742188 304.738281 92.277344 305.578125 C 93.847656 307.675781 95.417969 309.773438 97.09375 311.867188 C 99.398438 314.488281 101.804688 317.109375 104.214844 319.625 Z M 140.035156 335.035156 C 139.195312 334.722656 138.359375 334.300781 137.625 333.988281 C 136.160156 333.464844 134.796875 332.9375 133.4375 332.625 C 131.867188 332.207031 130.191406 331.785156 128.515625 331.578125 C 126.839844 331.367188 125.164062 331.261719 123.382812 331.261719 C 121.914062 331.261719 120.554688 331.367188 119.085938 331.472656 L 118.25 331.578125 C 120.972656 333.671875 123.90625 335.558594 126.839844 337.34375 C 130.398438 339.542969 134.066406 341.429688 137.835938 343.210938 C 138.148438 341.953125 138.359375 340.800781 138.671875 339.542969 C 139.09375 338.074219 139.511719 336.609375 140.035156 335.035156 Z M 85.257812 294.78125 C 87.351562 293.628906 89.554688 292.683594 91.753906 291.742188 C 94.683594 290.484375 97.722656 289.539062 100.65625 288.699219 C 104.320312 287.652344 108.089844 286.8125 111.964844 286.289062 C 115.734375 285.765625 119.613281 285.453125 123.382812 285.453125 C 127.152344 285.453125 131.027344 285.765625 134.796875 286.289062 C 138.566406 286.8125 142.339844 287.546875 146.003906 288.597656 C 149.042969 289.433594 151.972656 290.484375 154.800781 291.636719 C 157.105469 292.578125 159.410156 293.628906 161.609375 294.78125 C 163.601562 292.476562 165.589844 290.167969 167.683594 288.070312 C 170.199219 285.453125 172.816406 282.933594 175.644531 280.628906 L 176.378906 279.894531 C 173.445312 278.113281 170.40625 276.539062 167.371094 275.179688 C 163.390625 273.292969 159.304688 271.613281 155.011719 270.25 C 149.984375 268.679688 144.746094 267.421875 139.40625 266.582031 C 134.167969 265.742188 128.828125 265.324219 123.382812 265.324219 C 119.191406 265.324219 114.898438 265.636719 110.710938 266.164062 C 106.519531 266.6875 102.332031 267.421875 98.246094 268.46875 C 94.265625 269.414062 90.285156 270.671875 86.304688 272.136719 C 83.058594 273.5 79.8125 274.863281 76.671875 276.4375 C 77.824219 279.582031 79.183594 282.726562 80.648438 285.871094 C 82.011719 288.910156 83.582031 291.847656 85.257812 294.78125 Z M 203.292969 353.171875 C 204.863281 348.664062 206.960938 344.46875 209.472656 340.695312 C 212.40625 336.398438 215.964844 332.625 220.050781 329.375 C 224.449219 325.914062 229.371094 323.085938 234.820312 321.304688 C 240.054688 319.417969 245.605469 318.472656 251.367188 318.472656 C 253.148438 318.472656 255.03125 318.578125 256.8125 318.785156 C 258.59375 318.996094 260.480469 319.207031 262.257812 319.625 C 263.621094 319.941406 264.878906 320.253906 266.132812 320.675781 C 266.972656 320.988281 267.808594 321.199219 268.648438 321.511719 L 270.53125 319.625 C 273.046875 317.109375 275.351562 314.488281 277.65625 311.867188 C 279.332031 309.773438 281.007812 307.675781 282.578125 305.578125 C 281.007812 304.738281 279.433594 304.109375 277.863281 303.480469 C 275.457031 302.539062 273.046875 301.699219 270.636719 300.964844 C 267.496094 300.128906 264.355469 299.394531 261.105469 298.972656 C 257.964844 298.554688 254.71875 298.34375 251.367188 298.34375 C 242.570312 298.34375 234.085938 299.917969 226.230469 302.851562 C 218.167969 305.996094 210.730469 310.503906 204.445312 316.167969 C 198.582031 321.40625 193.554688 327.59375 189.679688 334.511719 C 186.222656 340.488281 183.707031 347.089844 182.242188 354.113281 L 183.5 354.21875 C 184.652344 354.21875 185.90625 354.21875 187.375 354.21875 C 190.308594 354.21875 193.238281 354.113281 196.066406 353.90625 C 198.476562 353.695312 200.886719 353.484375 203.292969 353.171875 Z M 256.601562 331.578125 L 255.554688 331.472656 C 254.195312 331.367188 252.832031 331.261719 251.367188 331.261719 C 247.074219 331.261719 242.882812 331.996094 238.902344 333.359375 C 234.921875 334.722656 231.257812 336.816406 227.90625 339.4375 C 225.496094 341.324219 223.296875 343.632812 221.308594 346.148438 C 220.367188 347.300781 219.527344 348.664062 218.691406 350.027344 C 225.601562 348.035156 232.199219 345.519531 238.378906 342.476562 C 244.769531 339.4375 250.84375 335.769531 256.601562 331.578125 Z M 169.464844 352.855469 C 171.140625 344.15625 174.179688 335.980469 178.367188 328.535156 C 182.976562 320.253906 188.945312 312.8125 195.859375 306.625 C 203.398438 299.917969 212.195312 294.570312 221.726562 290.902344 C 230.945312 287.441406 241 285.453125 251.367188 285.453125 C 255.242188 285.453125 259.011719 285.765625 262.886719 286.289062 C 266.65625 286.8125 270.429688 287.652344 274.09375 288.699219 C 277.132812 289.539062 280.0625 290.484375 282.996094 291.742188 C 285.195312 292.683594 287.394531 293.628906 289.59375 294.78125 C 291.164062 291.847656 292.738281 288.910156 294.203125 285.871094 C 295.5625 282.726562 296.925781 279.582031 298.078125 276.4375 C 295.144531 274.96875 292.109375 273.605469 289.070312 272.453125 C 285.40625 270.984375 281.738281 269.832031 277.96875 268.785156 C 273.570312 267.628906 269.171875 266.792969 264.773438 266.164062 C 260.375 265.636719 255.871094 265.324219 251.367188 265.324219 C 238.796875 265.324219 226.648438 267.628906 215.441406 271.71875 C 203.816406 276.015625 193.132812 282.410156 183.917969 290.273438 C 175.015625 297.925781 167.476562 306.941406 161.609375 317.214844 C 156.164062 326.648438 152.078125 337.027344 149.878906 348.035156 C 153.125 349.1875 156.371094 350.132812 159.621094 350.96875 C 162.867188 351.703125 166.113281 352.332031 169.464844 352.855469 Z M 187.375 7.863281 C 204.96875 7.863281 221.832031 11.425781 237.121094 17.820312 C 253.148438 24.425781 267.496094 34.175781 279.539062 46.230469 C 291.585938 58.285156 301.324219 72.648438 308.027344 88.6875 C 314.417969 104.097656 317.871094 120.871094 317.871094 138.480469 L 317.871094 236.390625 C 317.871094 254.003906 314.417969 270.878906 308.027344 286.289062 C 301.324219 302.222656 291.585938 316.585938 279.539062 328.746094 C 267.496094 340.800781 253.148438 350.445312 237.121094 357.15625 C 221.832031 363.550781 204.96875 367.113281 187.375 367.113281 C 169.777344 367.113281 153.023438 363.550781 137.625 357.15625 C 121.601562 350.445312 107.253906 340.800781 95.207031 328.746094 C 83.164062 316.585938 73.421875 302.222656 66.824219 286.289062 C 60.4375 270.878906 56.875 254.003906 56.875 236.390625 L 56.875 138.480469 C 56.875 120.871094 60.4375 104.097656 66.824219 88.6875 C 73.421875 72.648438 83.164062 58.285156 95.207031 46.230469 C 107.253906 34.175781 121.601562 24.425781 137.625 17.820312 C 153.023438 11.425781 169.777344 7.863281 187.375 7.863281 Z M 180.984375 213.328125 L 180.984375 206.09375 C 178.054688 200.539062 173.339844 196.136719 167.578125 192.574219 C 161.925781 189.113281 155.324219 186.492188 148.726562 184.605469 L 132.179688 202.742188 L 122.753906 194.144531 L 134.378906 181.355469 C 130.609375 180.726562 127.046875 180.203125 123.800781 179.886719 C 115.210938 178.945312 109.136719 178.945312 109.136719 178.945312 L 106.9375 178.945312 L 106.9375 166.15625 L 109.136719 166.15625 C 109.765625 166.15625 133.4375 166.261719 155.953125 173.703125 L 147.996094 148.019531 L 160.25 144.246094 L 171.351562 180.203125 C 173.652344 181.460938 175.957031 182.929688 178.054688 184.394531 C 179.101562 185.128906 180.042969 185.863281 180.984375 186.597656 L 180.984375 162.589844 L 155.222656 133.660156 L 133.960938 133.660156 L 121.496094 156.40625 L 110.289062 150.328125 L 119.402344 133.660156 L 112.910156 133.660156 L 112.28125 133.972656 C 109.453125 135.125 106.730469 136.804688 104.425781 138.796875 C 102.121094 140.785156 100.027344 143.09375 98.351562 145.714844 C 96.675781 148.230469 95.3125 151.058594 94.476562 153.996094 C 93.53125 156.929688 93.113281 159.972656 93.113281 163.117188 C 93.113281 165.003906 93.324219 166.890625 93.53125 168.566406 C 93.953125 170.453125 94.371094 172.234375 95 173.914062 C 95.523438 175.589844 96.359375 177.265625 97.199219 178.839844 C 98.140625 180.414062 99.1875 181.878906 100.339844 183.347656 L 102.015625 185.445312 C 101.910156 186.808594 101.804688 188.167969 101.703125 189.636719 L 101.703125 191.210938 C 101.703125 195.613281 102.539062 199.699219 104.007812 203.371094 C 105.683594 207.25 107.984375 210.8125 110.917969 213.75 C 116.679688 219.515625 124.636719 223.078125 133.4375 223.078125 C 136.054688 223.078125 138.671875 222.761719 141.082031 222.132812 C 143.59375 221.503906 145.898438 220.5625 148.097656 219.410156 C 150.402344 218.253906 152.496094 216.789062 154.488281 215.109375 C 156.371094 213.433594 158.046875 211.441406 159.515625 209.34375 L 163.285156 203.894531 L 168.523438 207.878906 C 169.882812 208.820312 171.351562 209.765625 172.816406 210.5 C 174.28125 211.230469 175.855469 211.859375 177.425781 212.386719 C 178.472656 212.804688 179.414062 213.015625 180.460938 213.222656 Z M 113.328125 120.871094 L 143.804688 120.871094 L 125.894531 100.636719 L 135.425781 92.144531 L 154.800781 113.847656 L 157.734375 101.6875 L 170.09375 104.621094 L 165.066406 125.480469 L 180.984375 143.304688 L 180.984375 104.515625 L 160.980469 81.140625 L 170.722656 72.859375 L 187.375 92.355469 L 204.027344 72.859375 L 213.765625 81.140625 L 193.761719 104.515625 L 193.761719 143.304688 L 209.683594 125.480469 L 204.65625 104.621094 L 217.015625 101.6875 L 220.050781 113.847656 L 239.425781 92.144531 L 248.957031 100.636719 L 230.945312 120.871094 L 261.421875 120.871094 L 261.839844 119.820312 C 262.15625 118.984375 262.363281 118.25 262.574219 117.410156 C 262.886719 116.152344 263.203125 114.789062 263.304688 113.425781 C 263.515625 112.167969 263.621094 110.804688 263.621094 109.339844 C 263.621094 105.039062 262.679688 100.953125 261.210938 97.179688 C 259.535156 93.300781 257.230469 89.839844 254.300781 86.90625 C 251.367188 83.96875 247.804688 81.558594 243.929688 79.984375 C 240.265625 78.414062 236.179688 77.574219 231.78125 77.574219 C 231.152344 77.574219 230.523438 77.574219 230.105469 77.574219 C 229.582031 77.574219 229.058594 77.679688 228.640625 77.679688 C 228.117188 77.785156 227.59375 77.785156 226.964844 77.890625 C 226.441406 77.996094 225.917969 78.097656 225.394531 78.203125 L 219.632812 79.355469 L 217.957031 73.589844 C 217.015625 70.238281 215.546875 67.09375 213.664062 64.367188 C 211.671875 61.429688 209.367188 58.914062 206.539062 56.820312 C 203.921875 54.828125 200.78125 53.148438 197.535156 52.101562 C 194.390625 50.949219 190.933594 50.425781 187.375 50.425781 C 183.8125 50.425781 180.460938 50.949219 177.214844 52.101562 C 173.96875 53.148438 170.929688 54.828125 168.207031 56.820312 C 165.484375 58.914062 163.074219 61.429688 161.085938 64.367188 C 159.199219 67.09375 157.734375 70.238281 156.792969 73.589844 L 155.222656 79.355469 L 149.355469 78.203125 C 148.9375 78.097656 148.414062 77.996094 147.785156 77.890625 C 147.15625 77.785156 146.632812 77.785156 146.214844 77.679688 C 145.691406 77.679688 145.167969 77.574219 144.644531 77.574219 C 144.222656 77.574219 143.59375 77.574219 142.96875 77.574219 C 138.671875 77.574219 134.484375 78.414062 130.816406 79.984375 C 126.941406 81.558594 123.488281 83.96875 120.449219 86.90625 C 117.515625 89.839844 115.210938 93.300781 113.640625 97.179688 C 112.070312 100.953125 111.234375 105.039062 111.234375 109.339844 C 111.234375 110.804688 111.234375 112.167969 111.441406 113.425781 C 111.652344 114.789062 111.859375 116.152344 112.175781 117.410156 C 112.382812 118.25 112.699219 118.984375 112.910156 119.820312 Z M 261.945312 133.660156 L 255.347656 133.660156 L 264.457031 150.328125 L 253.25 156.40625 L 240.894531 133.660156 L 219.527344 133.660156 L 193.761719 162.589844 L 193.761719 186.597656 C 194.707031 185.863281 195.648438 185.128906 196.695312 184.394531 C 198.894531 182.929688 201.09375 181.460938 203.398438 180.203125 L 214.5 144.246094 L 226.753906 148.019531 L 218.792969 173.703125 C 229.476562 170.140625 240.472656 168.253906 249.0625 167.308594 C 258.804688 166.15625 265.503906 166.15625 265.609375 166.15625 L 267.808594 166.15625 L 267.914062 178.945312 L 265.609375 178.945312 C 265.609375 178.945312 259.535156 178.945312 251.050781 179.886719 C 247.699219 180.203125 244.140625 180.726562 240.371094 181.355469 L 251.996094 194.144531 L 242.570312 202.742188 L 226.019531 184.605469 C 219.421875 186.492188 212.824219 189.113281 207.167969 192.574219 C 201.511719 196.136719 196.695312 200.539062 193.761719 206.09375 L 193.761719 213.328125 L 194.390625 213.222656 C 195.335938 213.015625 196.277344 212.804688 197.324219 212.386719 C 198.894531 211.859375 200.464844 211.230469 201.933594 210.5 C 203.398438 209.765625 204.863281 208.820312 206.226562 207.878906 L 211.464844 203.894531 L 215.234375 209.34375 C 216.699219 211.441406 218.375 213.433594 220.367188 215.109375 C 222.25 216.789062 224.34375 218.253906 226.648438 219.410156 C 228.847656 220.5625 231.257812 221.503906 233.769531 222.132812 C 236.179688 222.761719 238.695312 223.078125 241.417969 223.078125 C 245.710938 223.078125 249.796875 222.132812 253.566406 220.667969 C 257.441406 218.988281 260.898438 216.683594 263.828125 213.75 C 266.761719 210.8125 269.171875 207.25 270.742188 203.371094 C 272.3125 199.699219 273.152344 195.613281 273.152344 191.210938 L 273.152344 189.636719 C 273.046875 188.167969 272.835938 186.808594 272.734375 185.339844 L 274.40625 183.347656 C 275.558594 181.878906 276.609375 180.414062 277.550781 178.839844 C 278.492188 177.265625 279.226562 175.589844 279.855469 173.914062 C 280.378906 172.234375 280.902344 170.453125 281.214844 168.566406 C 281.53125 166.890625 281.636719 165.003906 281.636719 163.117188 C 281.636719 159.972656 281.214844 156.929688 280.378906 153.996094 C 279.433594 151.058594 278.179688 148.230469 276.503906 145.714844 C 274.828125 143.09375 272.734375 140.785156 270.324219 138.796875 C 268.019531 136.804688 265.402344 135.125 262.574219 133.972656 Z M 261.945312 133.660156 " clip-rule="nonzero"/></clipPath><linearGradient x1="-334.691012" gradientTransform="matrix(0.104734, 0, 0, 0.104829, 56.875751, 7.86341)" y1="3023.037663" x2="2826.59549" gradientUnits="userSpaceOnUse" y2="403.847143" id="450cd1cfb8"><stop stop-opacity="1" stop-color="rgb(2.398682%, 37.298584%, 27.49939%)" offset="0"/><stop stop-opacity="1" stop-color="rgb(2.398682%, 37.298584%, 27.49939%)" offset="0.125"/><stop stop-opacity="1" stop-color="rgb(2.398682%, 37.298584%, 27.49939%)" offset="0.15625"/><stop stop-opacity="1" stop-color="rgb(2.398682%, 37.298584%, 27.49939%)" offset="0.171875"/><stop stop-opacity="1" stop-color="rgb(2.398682%, 37.298584%, 27.49939%)" offset="0.179687"/><stop stop-opacity="1" stop-color="rgb(2.461243%, 37.530518%, 27.552795%)" offset="0.183594"/><stop stop-opacity="1" stop-color="rgb(2.52533%, 37.763977%, 27.607727%)" offset="0.1875"/><stop stop-opacity="1" stop-color="rgb(2.590942%, 38.008118%, 27.66571%)" offset="0.191406"/><stop stop-opacity="1" stop-color="rgb(2.658081%, 38.252258%, 27.723694%)" offset="0.195312"/><stop stop-opacity="1" stop-color="rgb(2.72522%, 38.496399%, 27.780151%)" offset="0.199219"/><stop stop-opacity="1" stop-color="rgb(2.792358%, 38.74054%, 27.838135%)" offset="0.203125"/><stop stop-opacity="1" stop-color="rgb(2.857971%, 38.98468%, 27.894592%)" offset="0.207031"/><stop stop-opacity="1" stop-color="rgb(2.92511%, 39.228821%, 27.952576%)" offset="0.210937"/><stop stop-opacity="1" stop-color="rgb(2.990723%, 39.472961%, 28.009033%)" offset="0.214844"/><stop stop-opacity="1" stop-color="rgb(3.057861%, 39.717102%, 28.067017%)" offset="0.21875"/><stop stop-opacity="1" stop-color="rgb(3.123474%, 39.961243%, 28.123474%)" offset="0.222656"/><stop stop-opacity="1" stop-color="rgb(3.190613%, 40.205383%, 28.181458%)" offset="0.226562"/><stop stop-opacity="1" stop-color="rgb(3.257751%, 40.449524%, 28.239441%)" offset="0.230469"/><stop stop-opacity="1" stop-color="rgb(3.32489%, 40.693665%, 28.297424%)" offset="0.234375"/><stop stop-opacity="1" stop-color="rgb(3.390503%, 40.937805%, 28.353882%)" offset="0.238281"/><stop stop-opacity="1" stop-color="rgb(3.457642%, 41.181946%, 28.411865%)" offset="0.242187"/><stop stop-opacity="1" stop-color="rgb(3.523254%, 41.426086%, 28.468323%)" offset="0.246094"/><stop stop-opacity="1" stop-color="rgb(3.590393%, 41.670227%, 28.526306%)" offset="0.25"/><stop stop-opacity="1" stop-color="rgb(3.656006%, 41.914368%, 28.582764%)" offset="0.253906"/><stop stop-opacity="1" stop-color="rgb(3.723145%, 42.158508%, 28.640747%)" offset="0.257812"/><stop stop-opacity="1" stop-color="rgb(3.788757%, 42.402649%, 28.697205%)" offset="0.261719"/><stop stop-opacity="1" stop-color="rgb(3.855896%, 42.64679%, 28.755188%)" offset="0.265625"/><stop stop-opacity="1" stop-color="rgb(3.923035%, 42.89093%, 28.813171%)" offset="0.269531"/><stop stop-opacity="1" stop-color="rgb(3.990173%, 43.135071%, 28.871155%)" offset="0.273438"/><stop stop-opacity="1" stop-color="rgb(4.055786%, 43.379211%, 28.927612%)" offset="0.277344"/><stop stop-opacity="1" stop-color="rgb(4.122925%, 43.623352%, 28.985596%)" offset="0.28125"/><stop stop-opacity="1" stop-color="rgb(4.188538%, 43.867493%, 29.042053%)" offset="0.285156"/><stop stop-opacity="1" stop-color="rgb(4.255676%, 44.111633%, 29.100037%)" offset="0.289062"/><stop stop-opacity="1" stop-color="rgb(4.321289%, 44.355774%, 29.156494%)" offset="0.292969"/><stop stop-opacity="1" stop-color="rgb(4.388428%, 44.599915%, 29.214478%)" offset="0.296875"/><stop stop-opacity="1" stop-color="rgb(4.454041%, 44.844055%, 29.270935%)" offset="0.300781"/><stop stop-opacity="1" stop-color="rgb(4.521179%, 45.088196%, 29.328918%)" offset="0.304688"/><stop stop-opacity="1" stop-color="rgb(4.588318%, 45.332336%, 29.386902%)" offset="0.308594"/><stop stop-opacity="1" stop-color="rgb(4.655457%, 45.576477%, 29.444885%)" offset="0.3125"/><stop stop-opacity="1" stop-color="rgb(4.721069%, 45.820618%, 29.501343%)" offset="0.316406"/><stop stop-opacity="1" stop-color="rgb(4.788208%, 46.064758%, 29.559326%)" offset="0.320312"/><stop stop-opacity="1" stop-color="rgb(4.853821%, 46.308899%, 29.615784%)" offset="0.324219"/><stop stop-opacity="1" stop-color="rgb(4.920959%, 46.55304%, 29.673767%)" offset="0.328125"/><stop stop-opacity="1" stop-color="rgb(4.986572%, 46.79718%, 29.730225%)" offset="0.332031"/><stop stop-opacity="1" stop-color="rgb(5.053711%, 47.041321%, 29.788208%)" offset="0.335938"/><stop stop-opacity="1" stop-color="rgb(5.119324%, 47.285461%, 29.844666%)" offset="0.339844"/><stop stop-opacity="1" stop-color="rgb(5.186462%, 47.529602%, 29.902649%)" offset="0.34375"/><stop stop-opacity="1" stop-color="rgb(5.253601%, 47.773743%, 29.960632%)" offset="0.347656"/><stop stop-opacity="1" stop-color="rgb(5.32074%, 48.017883%, 30.018616%)" offset="0.351563"/><stop stop-opacity="1" stop-color="rgb(5.386353%, 48.262024%, 30.075073%)" offset="0.355469"/><stop stop-opacity="1" stop-color="rgb(5.453491%, 48.506165%, 30.133057%)" offset="0.359375"/><stop stop-opacity="1" stop-color="rgb(5.519104%, 48.750305%, 30.189514%)" offset="0.363281"/><stop stop-opacity="1" stop-color="rgb(5.586243%, 48.994446%, 30.247498%)" offset="0.367188"/><stop stop-opacity="1" stop-color="rgb(5.651855%, 49.238586%, 30.303955%)" offset="0.371094"/><stop stop-opacity="1" stop-color="rgb(5.718994%, 49.482727%, 30.361938%)" offset="0.375"/><stop stop-opacity="1" stop-color="rgb(5.784607%, 49.726868%, 30.418396%)" offset="0.378906"/><stop stop-opacity="1" stop-color="rgb(5.851746%, 49.971008%, 30.476379%)" offset="0.382812"/><stop stop-opacity="1" stop-color="rgb(5.918884%, 50.215149%, 30.534363%)" offset="0.386719"/><stop stop-opacity="1" stop-color="rgb(5.986023%, 50.45929%, 30.592346%)" offset="0.390625"/><stop stop-opacity="1" stop-color="rgb(6.051636%, 50.70343%, 30.648804%)" offset="0.394531"/><stop stop-opacity="1" stop-color="rgb(6.118774%, 50.947571%, 30.706787%)" offset="0.398437"/><stop stop-opacity="1" stop-color="rgb(6.184387%, 51.191711%, 30.763245%)" offset="0.402344"/><stop stop-opacity="1" stop-color="rgb(6.251526%, 51.435852%, 30.821228%)" offset="0.40625"/><stop stop-opacity="1" stop-color="rgb(6.317139%, 51.679993%, 30.877686%)" offset="0.410156"/><stop stop-opacity="1" stop-color="rgb(6.384277%, 51.924133%, 30.935669%)" offset="0.414062"/><stop stop-opacity="1" stop-color="rgb(6.44989%, 52.168274%, 30.992126%)" offset="0.417969"/><stop stop-opacity="1" stop-color="rgb(6.517029%, 52.412415%, 31.05011%)" offset="0.421875"/><stop stop-opacity="1" stop-color="rgb(6.584167%, 52.656555%, 31.108093%)" offset="0.425781"/><stop stop-opacity="1" stop-color="rgb(6.651306%, 52.900696%, 31.166077%)" offset="0.429688"/><stop stop-opacity="1" stop-color="rgb(6.716919%, 53.144836%, 31.222534%)" offset="0.433594"/><stop stop-opacity="1" stop-color="rgb(6.784058%, 53.388977%, 31.280518%)" offset="0.4375"/><stop stop-opacity="1" stop-color="rgb(6.84967%, 53.633118%, 31.336975%)" offset="0.441406"/><stop stop-opacity="1" stop-color="rgb(6.916809%, 53.877258%, 31.394958%)" offset="0.445312"/><stop stop-opacity="1" stop-color="rgb(6.982422%, 54.121399%, 31.451416%)" offset="0.449219"/><stop stop-opacity="1" stop-color="rgb(7.049561%, 54.36554%, 31.509399%)" offset="0.453125"/><stop stop-opacity="1" stop-color="rgb(7.115173%, 54.60968%, 31.565857%)" offset="0.457031"/><stop stop-opacity="1" stop-color="rgb(7.182312%, 54.853821%, 31.62384%)" offset="0.460937"/><stop stop-opacity="1" stop-color="rgb(7.249451%, 55.097961%, 31.681824%)" offset="0.464844"/><stop stop-opacity="1" stop-color="rgb(7.316589%, 55.342102%, 31.739807%)" offset="0.46875"/><stop stop-opacity="1" stop-color="rgb(7.382202%, 55.586243%, 31.796265%)" offset="0.472656"/><stop stop-opacity="1" stop-color="rgb(7.449341%, 55.830383%, 31.854248%)" offset="0.476562"/><stop stop-opacity="1" stop-color="rgb(7.514954%, 56.074524%, 31.910706%)" offset="0.480469"/><stop stop-opacity="1" stop-color="rgb(7.582092%, 56.318665%, 31.968689%)" offset="0.484375"/><stop stop-opacity="1" stop-color="rgb(7.647705%, 56.562805%, 32.025146%)" offset="0.488281"/><stop stop-opacity="1" stop-color="rgb(7.714844%, 56.806946%, 32.08313%)" offset="0.492188"/><stop stop-opacity="1" stop-color="rgb(7.780457%, 57.051086%, 32.139587%)" offset="0.496094"/><stop stop-opacity="1" stop-color="rgb(7.847595%, 57.295227%, 32.197571%)" offset="0.5"/><stop stop-opacity="1" stop-color="rgb(7.914734%, 57.539368%, 32.255554%)" offset="0.503906"/><stop stop-opacity="1" stop-color="rgb(7.981873%, 57.783508%, 32.313538%)" offset="0.507812"/><stop stop-opacity="1" stop-color="rgb(8.047485%, 58.027649%, 32.369995%)" offset="0.511719"/><stop stop-opacity="1" stop-color="rgb(8.114624%, 58.27179%, 32.427979%)" offset="0.515625"/><stop stop-opacity="1" stop-color="rgb(8.180237%, 58.51593%, 32.484436%)" offset="0.519531"/><stop stop-opacity="1" stop-color="rgb(8.247375%, 58.760071%, 32.542419%)" offset="0.523438"/><stop stop-opacity="1" stop-color="rgb(8.312988%, 59.004211%, 32.598877%)" offset="0.527344"/><stop stop-opacity="1" stop-color="rgb(8.380127%, 59.248352%, 32.65686%)" offset="0.53125"/><stop stop-opacity="1" stop-color="rgb(8.44574%, 59.492493%, 32.713318%)" offset="0.535156"/><stop stop-opacity="1" stop-color="rgb(8.512878%, 59.736633%, 32.771301%)" offset="0.539062"/><stop stop-opacity="1" stop-color="rgb(8.580017%, 59.980774%, 32.829285%)" offset="0.542969"/><stop stop-opacity="1" stop-color="rgb(8.647156%, 60.224915%, 32.887268%)" offset="0.546875"/><stop stop-opacity="1" stop-color="rgb(8.712769%, 60.469055%, 32.943726%)" offset="0.550781"/><stop stop-opacity="1" stop-color="rgb(8.779907%, 60.713196%, 33.001709%)" offset="0.554687"/><stop stop-opacity="1" stop-color="rgb(8.84552%, 60.957336%, 33.058167%)" offset="0.558594"/><stop stop-opacity="1" stop-color="rgb(8.912659%, 61.201477%, 33.11615%)" offset="0.5625"/><stop stop-opacity="1" stop-color="rgb(8.978271%, 61.445618%, 33.172607%)" offset="0.566406"/><stop stop-opacity="1" stop-color="rgb(9.04541%, 61.689758%, 33.230591%)" offset="0.570312"/><stop stop-opacity="1" stop-color="rgb(9.111023%, 61.933899%, 33.287048%)" offset="0.574219"/><stop stop-opacity="1" stop-color="rgb(9.178162%, 62.17804%, 33.345032%)" offset="0.578125"/><stop stop-opacity="1" stop-color="rgb(9.2453%, 62.42218%, 33.403015%)" offset="0.582031"/><stop stop-opacity="1" stop-color="rgb(9.312439%, 62.666321%, 33.460999%)" offset="0.585938"/><stop stop-opacity="1" stop-color="rgb(9.378052%, 62.910461%, 33.517456%)" offset="0.589844"/><stop stop-opacity="1" stop-color="rgb(9.44519%, 63.154602%, 33.575439%)" offset="0.59375"/><stop stop-opacity="1" stop-color="rgb(9.510803%, 63.398743%, 33.631897%)" offset="0.597656"/><stop stop-opacity="1" stop-color="rgb(9.577942%, 63.642883%, 33.68988%)" offset="0.601562"/><stop stop-opacity="1" stop-color="rgb(9.643555%, 63.887024%, 33.746338%)" offset="0.605469"/><stop stop-opacity="1" stop-color="rgb(9.710693%, 64.131165%, 33.804321%)" offset="0.609375"/><stop stop-opacity="1" stop-color="rgb(9.776306%, 64.375305%, 33.860779%)" offset="0.613281"/><stop stop-opacity="1" stop-color="rgb(9.843445%, 64.619446%, 33.918762%)" offset="0.617187"/><stop stop-opacity="1" stop-color="rgb(9.910583%, 64.863586%, 33.976746%)" offset="0.621094"/><stop stop-opacity="1" stop-color="rgb(9.977722%, 65.107727%, 34.034729%)" offset="0.625"/><stop stop-opacity="1" stop-color="rgb(10.043335%, 65.351868%, 34.091187%)" offset="0.628906"/><stop stop-opacity="1" stop-color="rgb(10.110474%, 65.596008%, 34.14917%)" offset="0.632812"/><stop stop-opacity="1" stop-color="rgb(10.176086%, 65.840149%, 34.205627%)" offset="0.636719"/><stop stop-opacity="1" stop-color="rgb(10.243225%, 66.08429%, 34.263611%)" offset="0.640625"/><stop stop-opacity="1" stop-color="rgb(10.308838%, 66.32843%, 34.320068%)" offset="0.644531"/><stop stop-opacity="1" stop-color="rgb(10.375977%, 66.572571%, 34.378052%)" offset="0.648438"/><stop stop-opacity="1" stop-color="rgb(10.441589%, 66.816711%, 34.434509%)" offset="0.652344"/><stop stop-opacity="1" stop-color="rgb(10.508728%, 67.060852%, 34.492493%)" offset="0.65625"/><stop stop-opacity="1" stop-color="rgb(10.575867%, 67.304993%, 34.550476%)" offset="0.660156"/><stop stop-opacity="1" stop-color="rgb(10.643005%, 67.549133%, 34.608459%)" offset="0.664062"/><stop stop-opacity="1" stop-color="rgb(10.708618%, 67.793274%, 34.664917%)" offset="0.667969"/><stop stop-opacity="1" stop-color="rgb(10.775757%, 68.037415%, 34.7229%)" offset="0.671875"/><stop stop-opacity="1" stop-color="rgb(10.84137%, 68.281555%, 34.779358%)" offset="0.675781"/><stop stop-opacity="1" stop-color="rgb(10.908508%, 68.525696%, 34.837341%)" offset="0.679687"/><stop stop-opacity="1" stop-color="rgb(10.974121%, 68.769836%, 34.893799%)" offset="0.683594"/><stop stop-opacity="1" stop-color="rgb(11.04126%, 69.013977%, 34.951782%)" offset="0.6875"/><stop stop-opacity="1" stop-color="rgb(11.106873%, 69.258118%, 35.00824%)" offset="0.691406"/><stop stop-opacity="1" stop-color="rgb(11.174011%, 69.502258%, 35.066223%)" offset="0.695312"/><stop stop-opacity="1" stop-color="rgb(11.24115%, 69.746399%, 35.124207%)" offset="0.699219"/><stop stop-opacity="1" stop-color="rgb(11.308289%, 69.99054%, 35.18219%)" offset="0.703125"/><stop stop-opacity="1" stop-color="rgb(11.373901%, 70.23468%, 35.238647%)" offset="0.707031"/><stop stop-opacity="1" stop-color="rgb(11.44104%, 70.478821%, 35.296631%)" offset="0.710938"/><stop stop-opacity="1" stop-color="rgb(11.506653%, 70.722961%, 35.353088%)" offset="0.714844"/><stop stop-opacity="1" stop-color="rgb(11.573792%, 70.967102%, 35.411072%)" offset="0.71875"/><stop stop-opacity="1" stop-color="rgb(11.639404%, 71.211243%, 35.467529%)" offset="0.722656"/><stop stop-opacity="1" stop-color="rgb(11.706543%, 71.455383%, 35.525513%)" offset="0.726562"/><stop stop-opacity="1" stop-color="rgb(11.772156%, 71.699524%, 35.58197%)" offset="0.730469"/><stop stop-opacity="1" stop-color="rgb(11.839294%, 71.943665%, 35.639954%)" offset="0.734375"/><stop stop-opacity="1" stop-color="rgb(11.906433%, 72.187805%, 35.697937%)" offset="0.738281"/><stop stop-opacity="1" stop-color="rgb(11.973572%, 72.431946%, 35.75592%)" offset="0.742187"/><stop stop-opacity="1" stop-color="rgb(12.039185%, 72.676086%, 35.812378%)" offset="0.746094"/><stop stop-opacity="1" stop-color="rgb(12.106323%, 72.920227%, 35.870361%)" offset="0.75"/><stop stop-opacity="1" stop-color="rgb(12.171936%, 73.164368%, 35.926819%)" offset="0.753906"/><stop stop-opacity="1" stop-color="rgb(12.239075%, 73.408508%, 35.984802%)" offset="0.757812"/><stop stop-opacity="1" stop-color="rgb(12.304688%, 73.652649%, 36.04126%)" offset="0.761719"/><stop stop-opacity="1" stop-color="rgb(12.371826%, 73.89679%, 36.099243%)" offset="0.765625"/><stop stop-opacity="1" stop-color="rgb(12.437439%, 74.14093%, 36.155701%)" offset="0.769531"/><stop stop-opacity="1" stop-color="rgb(12.504578%, 74.385071%, 36.213684%)" offset="0.773438"/><stop stop-opacity="1" stop-color="rgb(12.571716%, 74.629211%, 36.271667%)" offset="0.777344"/><stop stop-opacity="1" stop-color="rgb(12.638855%, 74.873352%, 36.329651%)" offset="0.78125"/><stop stop-opacity="1" stop-color="rgb(12.704468%, 75.117493%, 36.386108%)" offset="0.785156"/><stop stop-opacity="1" stop-color="rgb(12.771606%, 75.361633%, 36.444092%)" offset="0.789062"/><stop stop-opacity="1" stop-color="rgb(12.837219%, 75.605774%, 36.500549%)" offset="0.792969"/><stop stop-opacity="1" stop-color="rgb(12.904358%, 75.849915%, 36.558533%)" offset="0.796875"/><stop stop-opacity="1" stop-color="rgb(12.969971%, 76.094055%, 36.61499%)" offset="0.800781"/><stop stop-opacity="1" stop-color="rgb(13.037109%, 76.338196%, 36.672974%)" offset="0.804687"/><stop stop-opacity="1" stop-color="rgb(13.102722%, 76.582336%, 36.729431%)" offset="0.808594"/><stop stop-opacity="1" stop-color="rgb(13.169861%, 76.826477%, 36.787415%)" offset="0.8125"/><stop stop-opacity="1" stop-color="rgb(13.233948%, 77.062988%, 36.842346%)" offset="0.816406"/><stop stop-opacity="1" stop-color="rgb(13.299561%, 77.2995%, 36.898804%)" offset="0.820312"/><stop stop-opacity="1" stop-color="rgb(13.299561%, 77.2995%, 36.898804%)" offset="0.828125"/><stop stop-opacity="1" stop-color="rgb(13.299561%, 77.2995%, 36.898804%)" offset="0.84375"/><stop stop-opacity="1" stop-color="rgb(13.299561%, 77.2995%, 36.898804%)" offset="0.875"/><stop stop-opacity="1" stop-color="rgb(13.299561%, 77.2995%, 36.898804%)" offset="1"/></linearGradient></defs><g clip-path="url(#f6aad03006)"><g clip-path="url(#502c77f3ad)"><path fill="url(#450cd1cfb8)" d="M 56.875 7.863281 L 56.875 367.113281 L 317.871094 367.113281 L 317.871094 7.863281 Z M 56.875 7.863281 " fill-rule="nonzero"/></g></g></svg>