<?xml version="1.0" encoding="utf-8"?>
<!-- Uploaded to: SVG Repo, www.svgrepo.com, Generator: SVG Repo Mixer Tools -->
<svg fill="#000000" version="1.1" id="Layer_1" xmlns="http://www.w3.org/2000/svg" xmlns:xlink="http://www.w3.org/1999/xlink" 
	 width="800px" height="800px" viewBox="0 0 260 244" enable-background="new 0 0 260 244" xml:space="preserve">
<path d="M258,54v-8h-25.176c-0.596-3.416-1.941-6.576-3.86-9.307l17.806-17.806l-5.656-5.657l-17.803,17.802
	c-2.731-1.926-5.892-3.275-9.311-3.876V2h-8v25.148c-3.433,0.596-6.609,1.947-9.35,3.879L178.87,13.248l-5.656,5.657l17.781,17.78
	c-1.922,2.733-3.269,5.896-3.866,9.315H162v8h25.129c0.598,3.428,1.95,6.597,3.88,9.335L173.23,81.112l5.656,5.657l17.783-17.782
	c2.737,1.924,5.906,3.271,9.331,3.865V98h8V72.844c3.41-0.599,6.565-1.944,9.292-3.862l17.804,17.805l5.656-5.656l-17.803-17.804
	c1.927-2.735,3.276-5.902,3.874-9.326H258z M209.976,34.8c8.382,0,15.2,6.819,15.2,15.2s-6.818,15.2-15.2,15.2
	c-8.381,0-15.199-6.819-15.199-15.2S201.595,34.8,209.976,34.8z M80,236v6H43v-6h15v-22h6v22H80z M63.537,82l9.723,38h24.545
	l-9.773-38H63.537z M84.518,164h24.603l-9.773-38H74.795L84.518,164z M78.325,164l-9.723-38h-24.52l9.723,38H78.325z M26.632,82H2
	l9.772,38h24.582L26.632,82z M67.067,120l-9.723-38H32.825l9.723,38H67.067z M95.776,208h24.661l-9.773-38H86.053L95.776,208z
	 M55.34,170l9.723,38h24.52l-9.723-38H55.34z M37.89,126H13.315l9.772,38h24.525L37.89,126z M24.631,170l9.772,38H58.87l-9.723-38
	H24.631z M178.667,190h17.055l6.686,26h-17.089L178.667,190z M163,237v-16h-5v16h-11v5h27v-5H163z M155.259,185l-7.164-28h16.968
	l7.164,28H155.259z M146.815,152l-6.652-26h16.968l6.652,26H146.815z M173.506,190l6.652,26H163.19l-6.652-26H173.506z M151.377,190
	l6.652,26h-16.834l-6.686-26H151.377z M141.654,152h-16.917l-6.686-26h16.951L141.654,152z M150.098,185h-16.874l-7.201-28h16.911
	L150.098,185z M179.264,126l6.686,26h-17.006l-6.652-26H179.264z M170.223,157h17.013l7.201,28h-17.049L170.223,157z M240,238v4h-16
	v-4h6v-9h4v9H240z M230.721,210l3.838,15h9.591l-3.838-15H230.721z M248.279,225H258l-3.858-15h-9.702L248.279,225z M217.049,210
	l3.858,15h9.524l-3.838-15H217.049z M243.417,206h9.696l-4.115-16h-9.675L243.417,206z M216.358,170h-9.596l4.115,16h9.575
	L216.358,170z M234.206,170l4.094,16h9.67l-4.115-16H234.206z M221.475,190h-9.57l4.115,16h9.549L221.475,190z M239.288,206
	l-4.094-16h-9.591l4.094,16H239.288z M234.171,186l-4.094-16h-9.591l4.094,16H234.171z"/>
</svg>